<?xml version="1.0" encoding="UTF-8" standalone="no"?>
<svg
   xmlns:dc="http://purl.org/dc/elements/1.1/"
   xmlns:cc="http://creativecommons.org/ns#"
   xmlns:rdf="http://www.w3.org/1999/02/22-rdf-syntax-ns#"
   xmlns:svg="http://www.w3.org/2000/svg"
   xmlns="http://www.w3.org/2000/svg"
   xmlns:sodipodi="http://sodipodi.sourceforge.net/DTD/sodipodi-0.dtd"
   xmlns:inkscape="http://www.inkscape.org/namespaces/inkscape"
   viewBox="0 0 189.67 188.67744"
   width="192.51505"
   height="192.45099"
   class="illustration styles_illustrationTablet__1DWOa"
   version="1.1"
   id="svg51"
   sodipodi:docname="Flying-kite-Outline.svg"
   inkscape:version="1.0.1 (3bc2e813f5, 2020-09-07)">
  <metadata
     id="metadata57">
    <rdf:RDF>
      <cc:Work
         rdf:about="">
        <dc:format>image/svg+xml</dc:format>
        <dc:type
           rdf:resource="http://purl.org/dc/dcmitype/StillImage" />
        <dc:title></dc:title>
      </cc:Work>
    </rdf:RDF>
  </metadata>
  <defs
     id="defs55" />
  <sodipodi:namedview
     pagecolor="#ffffff"
     bordercolor="#666666"
     borderopacity="1"
     objecttolerance="10"
     gridtolerance="10"
     guidetolerance="10"
     inkscape:pageopacity="0"
     inkscape:pageshadow="2"
     inkscape:window-width="1920"
     inkscape:window-height="1027"
     id="namedview53"
     showgrid="false"
     fit-margin-top="0"
     fit-margin-left="0"
     fit-margin-right="0"
     fit-margin-bottom="0"
     inkscape:zoom="2.4607843"
     inkscape:cx="96.2423"
     inkscape:cy="96.177788"
     inkscape:window-x="1072"
     inkscape:window-y="348"
     inkscape:window-maximized="1"
     inkscape:current-layer="svg51" />
  <g
     id="_542_flying_kite_outline"
     data-name="#542_flying_kite_outline"
     transform="translate(-105.18,-55.982474)">
    <path
       d="m 293.85,150 a 93.86,93.86 0 0 1 -177.68,42.22 c -0.31,-0.61 -0.62,-1.22 -0.91,-1.84 a 93.13,93.13 0 0 1 -9.08,-38.53 c 0,-0.61 0,-1.23 0,-1.85 a 93.85,93.85 0 0 1 187.67,-2.27 c -0.01,0.75 0,1.51 0,2.27 z"
       fill="#68e1fd"
       id="path2" />
    <path
       d="m 200,244.85 a 94.4,94.4 0 0 1 -84.72,-52.18 c -0.32,-0.63 -0.63,-1.24 -0.93,-1.87 a 93.73,93.73 0 0 1 -9.17,-38.93 c 0,-0.61 0,-1.24 0,-1.87 a 94.85,94.85 0 0 1 189.67,-2.29 c 0,0.75 0,1.52 0,2.29 A 94.83,94.83 0 0 1 200,244.85 Z m 0,-187.7 A 92.76,92.76 0 0 0 107.15,150 c 0,0.61 0,1.22 0,1.82 a 91.69,91.69 0 0 0 9,38.13 c 0.29,0.61 0.59,1.2 0.89,1.8 A 92.9,92.9 0 0 0 245.43,231 92.95,92.95 0 0 0 292.85,150 c 0,-0.75 0,-1.5 0,-2.24 A 92.13,92.13 0 0 0 289,123.49 93.58,93.58 0 0 0 256,75.93 92.08,92.08 0 0 0 200,57.15 Z"
       fill="#093f68"
       id="path4" />
    <path
       d="m 271.74,211 a 1,1 0 0 1 -0.93,-0.64 c -0.43,-1.11 -0.82,-2.22 -1.2,-3.31 -2.51,-7.21 -4.5,-12.91 -16.12,-12.13 -21.59,1.43 -26.92,-20.85 -27,-21.08 a 1.0239141,1.0239141 0 0 1 2,-0.44 31.8,31.8 0 0 0 5,10.35 21.64,21.64 0 0 0 19.93,9.17 c 13.14,-0.87 15.57,6.1 18.14,13.47 0.37,1.07 0.75,2.16 1.17,3.25 a 1,1 0 0 1 -0.57,1.3 1.13,1.13 0 0 1 -0.42,0.06 z"
       fill="#093f68"
       id="path6" />
    <polygon
       points="227.49,174.63 239.28,82.67 174.3,67.02 147.27,128.14 "
       fill="#ffbc0e"
       id="polygon8" />
    <path
       d="m 227.49,175.63 a 1,1 0 0 1 -0.5,-0.13 L 146.77,129 a 1,1 0 0 1 -0.42,-1.27 l 27,-61.12 a 1,1 0 0 1 1.15,-0.57 l 65,15.65 a 1,1 0 0 1 0.76,1.1 l -11.79,92 a 1,1 0 0 1 -0.55,0.77 1,1 0 0 1 -0.43,0.07 z M 148.55,127.73 226.69,173 238.17,83.42 174.88,68.19 Z"
       fill="#093f68"
       id="path10" />
    <path
       d="m 227.49,175.63 a 1,1 0 0 1 -0.9,-0.55 L 173.4,67.46 a 1.0017984,1.0017984 0 0 1 1.8,-0.88 l 53.18,107.61 a 1,1 0 0 1 -0.45,1.34 1,1 0 0 1 -0.44,0.1 z"
       fill="#093f68"
       id="path12" />
    <path
       d="m 147.27,129.14 a 1,1 0 0 1 -0.66,-0.25 1,1 0 0 1 -0.09,-1.41 c 0.22,-0.24 21.93,-24.57 40.55,-34.55 18.62,-9.98 50.81,-11.21 52.17,-11.26 a 1,1 0 0 1 1,1 1,1 0 0 1 -1,1 c -0.33,0 -33,1.24 -51.29,11 -18.29,9.76 -39.79,33.87 -40,34.11 a 1,1 0 0 1 -0.68,0.36 z"
       fill="#093f68"
       id="path14" />
    <path
       d="m 215.07,150.5 a 1,1 0 0 1 -0.47,-0.11 l -34.48,-18 a 1,1 0 0 1 -0.52,-1.07 l 7,-37.68 a 1.0169685,1.0169685 0 0 1 2,0.37 l -6.83,36.94 33.83,17.68 a 1,1 0 0 1 -0.46,1.88 z"
       fill="#093f68"
       id="path16" />
    <path
       d="m 112.84,185.85 a 1,1 0 0 1 -0.92,-0.62 1,1 0 0 1 0.54,-1.3 c 27.87,-11.41 44.66,-25.17 53.84,-34.71 9.93,-10.32 13.33,-18.05 13.36,-18.13 a 1.0012118,1.0012118 0 0 1 1.84,0.79 c -0.13,0.32 -14.13,31.74 -68.28,53.9 a 1,1 0 0 1 -0.38,0.07 z"
       fill="#093f68"
       id="path18" />
    <polygon
       points="247.84,180.62 236.74,187.19 238.03,175.84 "
       fill="#ffbc0e"
       id="polygon20" />
    <path
       d="m 236.74,188.19 a 1,1 0 0 1 -0.54,-0.16 1,1 0 0 1 -0.45,-0.95 L 237,175.73 a 1,1 0 0 1 1.43,-0.79 l 9.81,4.78 a 1,1 0 0 1 0.56,0.85 1,1 0 0 1 -0.49,0.91 l -11.1,6.57 a 0.94,0.94 0 0 1 -0.47,0.14 z m 2.13,-10.83 -0.91,7.95 7.77,-4.61 z"
       fill="#093f68"
       id="path22" />
    <polygon
       points="236.14,200.98 236.4,188.08 225.66,195.46 "
       fill="#ffbc0e"
       id="polygon24" />
    <path
       d="m 236.14,202 a 1,1 0 0 1 -0.46,-0.11 l -10.48,-5.53 a 1,1 0 0 1 -0.53,-0.82 1,1 0 0 1 0.43,-0.89 l 10.74,-7.38 a 1,1 0 0 1 1,-0.05 1,1 0 0 1 0.52,0.9 l -0.26,12.9 a 1,1 0 0 1 -0.49,0.84 1,1 0 0 1 -0.47,0.14 z m -8.55,-6.64 7.58,4 0.19,-9.33 z"
       fill="#093f68"
       id="path26" />
    <polygon
       points="276.35,192.16 263.85,195.4 268.25,184.85 "
       fill="#ffbc0e"
       id="polygon28" />
    <path
       d="m 263.85,196.4 a 1,1 0 0 1 -0.75,-0.35 1,1 0 0 1 -0.17,-1 l 4.4,-10.54 a 1,1 0 0 1 1.59,-0.36 l 8.1,7.31 a 1,1 0 0 1 0.3,1 1,1 0 0 1 -0.72,0.73 l -12.5,3.24 a 1,1 0 0 1 -0.25,-0.03 z m 4.78,-9.86 -3.08,7.38 8.75,-2.26 z"
       fill="#093f68"
       id="path30" />
    <polygon
       points="259.45,208.48 263.28,196.15 250.92,200.26 "
       fill="#ffbc0e"
       id="polygon32" />
    <path
       d="m 259.45,209.48 a 1,1 0 0 1 -0.69,-0.28 l -8.54,-8.2 a 1,1 0 0 1 0.38,-1.67 L 263,195.2 a 1,1 0 0 1 1,0.24 1,1 0 0 1 0.26,1 l -3.83,12.32 a 1,1 0 0 1 -0.71,0.68 1.07,1.07 0 0 1 -0.27,0.04 z m -6.65,-8.79 6.18,5.94 2.77,-8.91 z"
       fill="#093f68"
       id="path34" />
    <path
       d="m 254.62,226.32 a 93.87,93.87 0 0 1 -138.45,-34.1 c 6.2,-3.42 14.13,-4.94 20.46,-5 a 33.65,33.65 0 0 1 6.26,0.46 25.33,25.33 0 0 1 4.19,1.1 c 10.37,3.76 16.84,16 14.1,26.68 a 15.72,15.72 0 0 1 23.12,16 c 0.79,-5.65 11,-8.12 15.2,-7.47 5,0.76 6.92,2.77 8.22,7.57 8.05,-5.43 15.18,-12.37 25.55,-12.69 5.07,-0.16 10.06,1.41 14.65,3.56 a 42.57,42.57 0 0 1 6.7,3.89 z"
       fill="#ffffff"
       id="path36" />
    <path
       d="m 200,244.85 a 94.4,94.4 0 0 1 -84.72,-52.18 1,1 0 0 1 0.41,-1.33 46.33,46.33 0 0 1 20.93,-5.12 33.91,33.91 0 0 1 6.44,0.48 25.54,25.54 0 0 1 4.36,1.14 c 10.21,3.7 16.79,15.22 15.14,25.88 a 16.67,16.67 0 0 1 22.77,13.73 9.54,9.54 0 0 1 1.2,-1 20.55,20.55 0 0 1 13.12,-3.45 c 4.77,0.73 7.15,2.6 8.63,7 1.18,-0.82 2.35,-1.67 3.49,-2.5 6.3,-4.59 12.82,-9.32 21.47,-9.59 4.6,-0.15 9.54,1.05 15.1,3.65 a 43.23,43.23 0 0 1 6.86,4 1,1 0 0 1 0.42,0.81 1,1 0 0 1 -0.42,0.81 94.49,94.49 0 0 1 -55.2,17.67 z M 117.51,192.64 A 92.89,92.89 0 0 0 245.43,231 c 2.53,-1.42 5,-3 7.44,-4.66 a 41.29,41.29 0 0 0 -5.38,-3 c -5.26,-2.46 -9.9,-3.6 -14.19,-3.46 -8,0.25 -14,4.6 -20.35,9.2 -1.52,1.11 -3.08,2.25 -4.67,3.32 a 1,1 0 0 1 -0.91,0.11 1,1 0 0 1 -0.62,-0.68 c -1.23,-4.57 -3,-6.17 -7.4,-6.84 a 18.84,18.84 0 0 0 -11.63,3.01 5.55,5.55 0 0 0 -2.43,3.54 v 0 a 1.0097524,1.0097524 0 0 1 -2,-0.28 v 0 a 14.71,14.71 0 0 0 -21.65,-14.95 1,1 0 0 1 -1.09,-0.09 1,1 0 0 1 -0.36,-1 c 2.62,-10.22 -3.55,-21.89 -13.47,-25.49 a 24.37,24.37 0 0 0 -4,-1.05 32.61,32.61 0 0 0 -6.08,-0.45 44.82,44.82 0 0 0 -19.13,4.41 z"
       fill="#093f68"
       id="path38" />
    <path
       d="m 293.82,147.73 a 295.29,295.29 0 0 0 -37.91,-3.26 c -2.78,-0.05 -5.92,-0.23 -7.73,-2.34 a 9,9 0 0 1 10.82,-3.77 4.65,4.65 0 0 1 1.45,-4.59 9,9 0 0 1 4.55,-2.08 18,18 0 0 1 11.51,1.58 c 1.1,-6.94 7.1,-9.81 13.45,-10.07 a 93.22,93.22 0 0 1 3.86,24.53 z"
       fill="#ffffff"
       id="path40" />
    <path
       d="m 293.82,148.73 h -0.15 a 295.22,295.22 0 0 0 -37.78,-3.25 c -3.17,-0.06 -6.43,-0.31 -8.47,-2.69 a 1,1 0 0 1 -0.11,-1.14 10,10 0 0 1 10.54,-4.65 6,6 0 0 1 1.91,-3.92 9.87,9.87 0 0 1 5.05,-2.33 19,19 0 0 1 11,1.12 c 1.5,-5.75 6.68,-9.32 14.13,-9.63 a 1,1 0 0 1 1,0.71 94.55,94.55 0 0 1 3.9,24.8 1,1 0 0 1 -0.34,0.77 1,1 0 0 1 -0.68,0.21 z M 249.46,142 c 1.57,1.29 4,1.45 6.47,1.49 a 297.3,297.3 0 0 1 36.85,3.09 92.51,92.51 0 0 0 -3.55,-22.31 c -3.66,0.29 -10.57,1.82 -11.73,9.18 a 1,1 0 0 1 -0.54,0.73 1,1 0 0 1 -0.9,0 16.87,16.87 0 0 0 -10.86,-1.49 7.87,7.87 0 0 0 -4.06,1.83 3.67,3.67 0 0 0 -1.18,3.56 1,1 0 0 1 -1.34,1.23 8,8 0 0 0 -9.16,2.69 z"
       fill="#093f68"
       id="path42" />
    <path
       d="m 129.67,148.45 c -1,2.67 -4.41,3.46 -7.27,3.7 a 82.94,82.94 0 0 1 -16.22,-0.3 c 0,-0.61 0,-1.23 0,-1.85 a 93.87,93.87 0 0 1 2.83,-23 17.75,17.75 0 0 1 2.52,1.54 16.77,16.77 0 0 1 6.75,12.46 c 2.73,-0.17 5.58,-0.32 8,0.84 2.42,1.16 4.38,4.07 3.39,6.61 z"
       fill="#ffffff"
       id="path44" />
    <path
       d="m 116,153.41 a 87.75,87.75 0 0 1 -9.89,-0.57 1,1 0 0 1 -0.89,-1 c 0,-0.62 0,-1.25 0,-1.88 a 95,95 0 0 1 2.78,-23.15 1,1 0 0 1 1.41,-0.66 19,19 0 0 1 2.67,1.63 17.76,17.76 0 0 1 7.1,12.13 15.61,15.61 0 0 1 7.57,1 c 2.81,1.33 5.08,4.73 3.84,7.91 v 0 c -1,2.5 -3.72,4 -8.12,4.33 -2.12,0.17 -4.3,0.26 -6.47,0.26 z m -8.8,-2.46 a 81.2,81.2 0 0 0 15.16,0.2 c 3.58,-0.3 5.74,-1.33 6.42,-3.07 0.78,-2 -0.87,-4.44 -2.84,-5.36 -2.29,-1.08 -5.09,-0.91 -7.56,-0.75 a 1,1 0 0 1 -0.72,-0.25 1,1 0 0 1 -0.34,-0.69 15.65,15.65 0 0 0 -6.37,-11.63 c -0.43,-0.31 -0.85,-0.59 -1.27,-0.84 A 93.29,93.29 0 0 0 107.15,150 c 0,0.32 0,0.63 0.01,1 z m 22.51,-2.5 z"
       fill="#093f68"
       id="path46" />
    <path
       d="m 163.88,226.72 a 1,1 0 0 1 -1,-1 11.82,11.82 0 0 0 -12.08,-11.58 1,1 0 1 1 0,-2 13.8,13.8 0 0 1 14.12,13.54 1,1 0 0 1 -1,1 z"
       fill="#093f68"
       id="path48" />
  </g>
</svg>
