<?xml version="1.0" encoding="UTF-8" standalone="no"?>
<svg
   xmlns:dc="http://purl.org/dc/elements/1.1/"
   xmlns:cc="http://creativecommons.org/ns#"
   xmlns:rdf="http://www.w3.org/1999/02/22-rdf-syntax-ns#"
   xmlns:svg="http://www.w3.org/2000/svg"
   xmlns="http://www.w3.org/2000/svg"
   xmlns:sodipodi="http://sodipodi.sourceforge.net/DTD/sodipodi-0.dtd"
   xmlns:inkscape="http://www.inkscape.org/namespaces/inkscape"
   viewBox="0 0 179.19173 176.96907"
   width="181.87961"
   height="180.50845"
   class="illustration styles_illustrationTablet__1DWOa"
   version="1.1"
   id="svg65"
   sodipodi:docname="Knowledge _Outline.svg"
   inkscape:version="1.0.1 (3bc2e813f5, 2020-09-07)">
  <metadata
     id="metadata71">
    <rdf:RDF>
      <cc:Work
         rdf:about="">
        <dc:format>image/svg+xml</dc:format>
        <dc:type
           rdf:resource="http://purl.org/dc/dcmitype/StillImage" />
        <dc:title></dc:title>
      </cc:Work>
    </rdf:RDF>
  </metadata>
  <defs
     id="defs69" />
  <sodipodi:namedview
     pagecolor="#ffffff"
     bordercolor="#666666"
     borderopacity="1"
     objecttolerance="10"
     gridtolerance="10"
     guidetolerance="10"
     inkscape:pageopacity="0"
     inkscape:pageshadow="2"
     inkscape:window-width="1920"
     inkscape:window-height="1027"
     id="namedview67"
     showgrid="false"
     fit-margin-top="0"
     fit-margin-left="0"
     fit-margin-right="0"
     fit-margin-bottom="0"
     inkscape:zoom="2.4607843"
     inkscape:cx="90.925461"
     inkscape:cy="90.2538"
     inkscape:window-x="1072"
     inkscape:window-y="348"
     inkscape:window-maximized="1"
     inkscape:current-layer="svg65" />
  <g
     id="_88_knowledge_outline"
     data-name="#88_knowledge_outline"
     transform="translate(-110.41826,-61.818916)">
    <path
       d="m 280.58,101.65 -4.46,15.9 C 229,122.72 200,154.41 200,154.41 c 0,0 -30.85,-33.7 -80.58,-37.26 v -15.5 l -8,19.42 v 95.49 c 0,0 53.58,-8.9 88.58,21.36 35,-30.26 88.58,-21.36 88.58,-21.36 v -95.49 z"
       fill="#68e1fd"
       id="path2" />
    <path
       d="m 200,238.92 a 1,1 0 0 1 -0.65,-0.25 c -34.3,-29.61 -87.23,-21.21 -87.77,-21.12 a 1,1 0 0 1 -0.81,-0.23 1,1 0 0 1 -0.35,-0.76 v -95.49 a 1,1 0 0 1 0.07,-0.38 l 8,-19.42 a 1,1 0 0 1 1.12,-0.6 1,1 0 0 1 0.81,1 v 14.57 C 165.26,119.79 195,148 200,153 c 4.82,-4.87 32.87,-31.45 75.34,-36.35 l 4.28,-15.25 a 1,1 0 0 1 0.91,-0.73 1,1 0 0 1 1,0.62 l 8,19.42 a 1,1 0 0 1 0.08,0.38 v 95.49 a 1,1 0 0 1 -0.35,0.76 1,1 0 0 1 -0.81,0.23 c -0.54,-0.09 -53.49,-8.47 -87.77,21.12 a 1,1 0 0 1 -0.68,0.23 z m -70.51,-24.53 c 18.76,0 48.3,3.46 70.51,22.21 32.12,-27.11 79.57,-22.24 87.58,-21.19 v -94.14 l -6.82,-16.56 -3.68,13.11 a 1,1 0 0 1 -0.85,0.72 c -46.17,5.07 -75.2,36.24 -75.49,36.55 a 1,1 0 0 1 -1.48,0 c -0.3,-0.33 -31.17,-33.45 -79.91,-36.94 a 1,1 0 0 1 -0.93,-1 V 106.7 l -6,14.57 v 94.14 a 133.73,133.73 0 0 1 17.07,-1.02 z m 146.63,-96.84 z"
       fill="#093f68"
       id="path4" />
    <path
       d="m 200,227.69 v -88.6 c 0,0 -31.27,-40.18 -80.58,-37.44 v 103.2 c 0,0 48.7,-9.53 80.58,22.84 z"
       fill="#ffffff"
       id="path6" />
    <path
       d="m 200,228.69 a 1,1 0 0 1 -0.71,-0.3 c -31.12,-31.6 -79.2,-22.66 -79.68,-22.56 a 1,1 0 0 1 -1.19,-1 V 101.65 a 1,1 0 0 1 0.94,-1 c 49.28,-2.77 81.11,37.42 81.43,37.82 a 1,1 0 0 1 0.21,0.62 v 88.6 a 1,1 0 0 1 -1,1 z M 135.86,202.6 c 16.79,0 43,3.57 63.14,22.7 v -85.86 c -2.8,-3.42 -33,-38.89 -78.58,-36.84 v 101.07 a 104.82,104.82 0 0 1 15.44,-1.07 z"
       fill="#093f68"
       id="path8" />
    <path
       d="m 200,227.69 v -88.6 c 0,0 31.27,-40.18 80.58,-37.44 v 103.2 c 0,0 -48.7,-9.53 -80.58,22.84 z"
       fill="#ffffff"
       id="path10" />
    <path
       d="m 200,228.69 a 1,1 0 0 1 -1,-1 v -88.6 a 1,1 0 0 1 0.21,-0.62 c 0.32,-0.4 32.13,-40.58 81.43,-37.82 a 1,1 0 0 1 0.94,1 v 103.2 a 1,1 0 0 1 -0.36,0.77 1,1 0 0 1 -0.83,0.21 c -0.48,-0.1 -48.56,-9 -79.68,22.56 a 1,1 0 0 1 -0.71,0.3 z m 1,-89.25 v 85.86 c 29.07,-27.67 71,-22.79 78.58,-21.63 V 102.6 C 234,100.56 203.8,136 201,139.44 Z"
       fill="#093f68"
       id="path12" />
    <path
       d="m 189,147 a 1,1 0 0 1 -0.68,-0.27 c -27,-25.25 -54.37,-23.5 -54.64,-23.48 a 1.0028086,1.0028086 0 1 1 -0.15,-2 c 0.28,0 28.45,-1.87 56.16,24 a 1,1 0 0 1 0.05,1.41 A 1,1 0 0 1 189,147 Z"
       fill="#dfeaef"
       id="path14" />
    <path
       d="m 189,164.64 a 1,1 0 0 1 -0.68,-0.27 c -27,-25.25 -54.37,-23.5 -54.64,-23.48 a 1.0028086,1.0028086 0 0 1 -0.15,-2 c 0.28,0 28.46,-1.87 56.16,24 a 1,1 0 0 1 0.05,1.41 1,1 0 0 1 -0.74,0.34 z"
       fill="#dfeaef"
       id="path16" />
    <path
       d="m 189,182.28 a 1,1 0 0 1 -0.68,-0.27 c -27,-25.24 -54.37,-23.5 -54.64,-23.48 a 1.0028086,1.0028086 0 0 1 -0.15,-2 c 0.28,0 28.46,-1.87 56.16,24 a 1,1 0 0 1 0.05,1.41 1,1 0 0 1 -0.74,0.34 z"
       fill="#dfeaef"
       id="path18" />
    <path
       d="m 189,199.92 a 1,1 0 0 1 -0.68,-0.27 c -27,-25.24 -54.37,-23.5 -54.64,-23.48 a 1.0028086,1.0028086 0 0 1 -0.15,-2 c 0.28,0 28.46,-1.87 56.16,24 a 1,1 0 0 1 0.05,1.41 1,1 0 0 1 -0.74,0.34 z"
       fill="#dfeaef"
       id="path20" />
    <path
       d="m 211,147 a 1,1 0 0 1 -0.73,-0.32 1,1 0 0 1 0,-1.41 c 14.46,-13.51 28.93,-19.32 38.52,-21.82 10.43,-2.71 17.35,-2.22 17.64,-2.19 a 1,1 0 0 1 0.92,1.07 1,1 0 0 1 -1.07,0.92 c -0.27,0 -27.61,-1.77 -54.64,23.48 A 1,1 0 0 1 211,147 Z"
       fill="#dfeaef"
       id="path22" />
    <path
       d="m 211,164.64 a 1,1 0 0 1 -0.73,-0.32 1,1 0 0 1 0,-1.41 c 14.46,-13.51 28.93,-19.32 38.52,-21.81 10.43,-2.72 17.35,-2.22 17.64,-2.2 a 1,1 0 0 1 0.92,1.07 1,1 0 0 1 -1.07,0.92 c -0.27,0 -27.61,-1.77 -54.64,23.48 a 1,1 0 0 1 -0.64,0.27 z"
       fill="#dfeaef"
       id="path24" />
    <path
       d="m 211,182.28 a 1,1 0 0 1 -0.73,-0.32 1,1 0 0 1 0,-1.41 c 14.46,-13.51 28.93,-19.32 38.52,-21.81 10.43,-2.72 17.35,-2.22 17.64,-2.2 a 1,1 0 0 1 0.92,1.07 1,1 0 0 1 -1.07,0.92 c -0.27,0 -27.62,-1.76 -54.64,23.48 a 1,1 0 0 1 -0.64,0.27 z"
       fill="#dfeaef"
       id="path26" />
    <path
       d="m 211,199.92 a 1,1 0 0 1 -0.73,-0.32 1,1 0 0 1 0,-1.41 c 14.46,-13.51 28.93,-19.32 38.52,-21.81 10.43,-2.72 17.35,-2.22 17.64,-2.2 a 1,1 0 0 1 0.92,1.07 1,1 0 0 1 -1.07,0.92 c -0.27,0 -27.62,-1.76 -54.64,23.48 a 1,1 0 0 1 -0.64,0.27 z"
       fill="#dfeaef"
       id="path28" />
    <path
       d="m 200,238.92 a 1,1 0 0 1 -1,-1 v -10.23 a 1,1 0 0 1 2,0 v 10.23 a 1,1 0 0 1 -1,1 z"
       fill="#093f68"
       id="path30" />
    <path
       d="m 288.58,217.56 a 1,1 0 0 1 -0.83,-0.44 l -8,-11.71 a 1,1 0 1 1 1.65,-1.13 l 8,11.72 a 1,1 0 0 1 -0.27,1.39 1,1 0 0 1 -0.55,0.17 z"
       fill="#093f68"
       id="path32" />
    <path
       d="m 111.42,217.56 a 1,1 0 0 1 -0.56,-0.17 1,1 0 0 1 -0.27,-1.39 l 8,-11.72 a 1,1 0 1 1 1.65,1.13 l -8,11.71 a 1,1 0 0 1 -0.82,0.44 z"
       fill="#093f68"
       id="path34" />
    <ellipse
       cx="200.63"
       cy="177.37"
       rx="11.31"
       ry="7.9299998"
       fill="#093f68"
       id="ellipse36" />
    <path
       d="m 200.63,186.31 c -6.78,0 -12.3,-4 -12.3,-8.93 0,-4.93 5.52,-8.94 12.3,-8.94 6.78,0 12.31,4 12.31,8.94 0,4.94 -5.52,8.93 -12.31,8.93 z m 0,-15.87 c -5.68,0 -10.3,3.11 -10.3,6.94 0,3.83 4.62,6.93 10.3,6.93 5.68,0 10.31,-3.11 10.31,-6.93 0,-3.82 -4.62,-6.94 -10.31,-6.94 z"
       fill="#093f68"
       id="path38" />
    <path
       d="m 233.92,112.67 a 33.43,33.43 0 1 0 -58.36,22.27 37.77,37.77 0 0 1 9.69,21.8 v 0 h 30.46 v 0 a 35.79,35.79 0 0 1 9.22,-21.29 33.25,33.25 0 0 0 8.99,-22.78 z"
       fill="#ffffff"
       id="path40" />
    <path
       d="m 215.72,157.77 h -30.46 a 1,1 0 0 1 -1,-0.91 36.58,36.58 0 0 0 -9.44,-21.25 34.43,34.43 0 1 1 50.86,0.53 34.84,34.84 0 0 0 -9,20.69 1,1 0 0 1 -0.96,0.94 z m -29.56,-2 h 28.66 a 36.8,36.8 0 0 1 9.39,-21 32.43,32.43 0 1 0 -47.9,-0.5 38.67,38.67 0 0 1 9.85,21.5 z"
       fill="#093f68"
       id="path42" />
    <path
       d="m 197.32,157.77 a 1,1 0 0 1 -1,-1 c 0,-0.21 0,-15.64 -2,-26.31 a 26.17,26.17 0 0 1 -9.47,-3.92 c -3,-2.07 -4.66,-4.49 -4.6,-6.62 0.08,-2.44 1.26,-4.23 3.18,-4.79 3,-0.87 6.82,1.38 9.79,5.73 a 23.47,23.47 0 0 1 2.78,7.88 28.26,28.26 0 0 0 9.21,-0.08 c 2.05,-7.88 4.95,-13.87 7.8,-14.44 a 6.32,6.32 0 0 1 7,4.39 c 0.43,1.46 1.15,6.47 -7.86,10.13 a 32.55,32.55 0 0 1 -5.22,1.63 c -1.88,7.71 -3.08,17.3 -2.35,25.38 a 1.0040418,1.0040418 0 1 1 -2,0.18 84.86,84.86 0 0 1 2.15,-25.17 30.34,30.34 0 0 1 -8.29,0.05 c 1.88,10.76 1.91,25.12 1.91,26 a 1,1 0 0 1 -1.03,0.96 z m -12.55,-40.83 a 2.7,2.7 0 0 0 -0.77,0.11 c -1.45,0.42 -1.71,2 -1.74,2.93 0,1.4 1.39,3.29 3.74,4.92 a 23.59,23.59 0 0 0 7.89,3.42 19.31,19.31 0 0 0 -2.31,-6.33 c -2.43,-3.57 -5.03,-5.05 -6.81,-5.05 z m 29.27,-0.82 a 3.18,3.18 0 0 0 -0.62,0.06 c -1.8,0.36 -4.12,5.24 -6,12 a 31.33,31.33 0 0 0 3.91,-1.29 c 5,-2 7.52,-4.92 6.69,-7.7 A 4.43,4.43 0 0 0 214,116.12 Z"
       fill="#70cc40"
       id="path44" />
    <rect
       x="183.3"
       y="155.84"
       width="34.66"
       height="23.219999"
       rx="2.47"
       fill="#ffbc0e"
       id="rect46" />
    <path
       d="m 215.5,180.06 h -29.73 a 3.48,3.48 0 0 1 -3.47,-3.47 v -18.28 a 3.48,3.48 0 0 1 3.47,-3.47 h 29.73 a 3.48,3.48 0 0 1 3.47,3.47 v 18.28 a 3.48,3.48 0 0 1 -3.47,3.47 z m -29.73,-23.22 a 1.47,1.47 0 0 0 -1.47,1.47 v 18.28 a 1.47,1.47 0 0 0 1.47,1.47 h 29.73 a 1.47,1.47 0 0 0 1.47,-1.47 v -18.28 a 1.47,1.47 0 0 0 -1.47,-1.47 z"
       fill="#093f68"
       id="path48" />
    <path
       d="m 217.48,164.27 h -33.69 a 1,1 0 0 1 0,-2 h 33.69 a 1,1 0 0 1 0,2 z"
       fill="#093f68"
       id="path50" />
    <path
       d="m 217.48,172.63 h -33.69 a 1,1 0 1 1 0,-2 h 33.69 a 1,1 0 1 1 0,2 z"
       fill="#093f68"
       id="path52" />
    <path
       d="m 162.44,100 a 0.92,0.92 0 0 1 -0.36,-0.07 L 149.43,95 a 1.0019107,1.0019107 0 0 1 0.72,-1.87 L 162.8,98 a 1,1 0 0 1 -0.36,1.93 z"
       fill="#dfeaef"
       id="path54" />
    <path
       d="m 176.49,78.32 a 1,1 0 0 1 -0.76,-0.35 l -8.22,-9.65 A 1,1 0 1 1 169,67 l 8.22,9.66 a 1,1 0 0 1 -0.76,1.64 z"
       fill="#dfeaef"
       id="path56" />
    <path
       d="m 237.56,100 a 1.0160709,1.0160709 0 0 1 -0.36,-2 l 12.65,-4.87 a 1,1 0 0 1 1.29,0.58 1,1 0 0 1 -0.57,1.29 l -12.65,4.9 a 0.92,0.92 0 0 1 -0.36,0.1 z"
       fill="#dfeaef"
       id="path58" />
    <path
       d="m 223.51,78.32 a 1,1 0 0 1 -0.76,-1.64 L 231,67 a 1.00005,1.00005 0 0 1 1.52,1.3 l -8.25,9.7 a 1,1 0 0 1 -0.76,0.32 z"
       fill="#dfeaef"
       id="path60" />
    <path
       d="m 200,73.63 a 1,1 0 0 1 -1,-1 V 62.08 a 1,1 0 1 1 2,0 v 10.55 a 1,1 0 0 1 -1,1 z"
       fill="#dfeaef"
       id="path62" />
  </g>
</svg>
