<?xml version="1.0" encoding="UTF-8" standalone="no"?>
<svg
   xmlns:dc="http://purl.org/dc/elements/1.1/"
   xmlns:cc="http://creativecommons.org/ns#"
   xmlns:rdf="http://www.w3.org/1999/02/22-rdf-syntax-ns#"
   xmlns:svg="http://www.w3.org/2000/svg"
   xmlns="http://www.w3.org/2000/svg"
   xmlns:sodipodi="http://sodipodi.sourceforge.net/DTD/sodipodi-0.dtd"
   xmlns:inkscape="http://www.inkscape.org/namespaces/inkscape"
   id="Layer_1"
   data-name="Layer 1"
   viewBox="0 0 297.12993 195.66276"
   width="301.58688"
   height="199.57602"
   class="illustration styles_illustrationTablet__1DWOa"
   version="1.1"
   sodipodi:docname="Reading a book_Two Color.svg"
   inkscape:version="1.0.1 (3bc2e813f5, 2020-09-07)">
  <metadata
     id="metadata93">
    <rdf:RDF>
      <cc:Work
         rdf:about="">
        <dc:format>image/svg+xml</dc:format>
        <dc:type
           rdf:resource="http://purl.org/dc/dcmitype/StillImage" />
        <dc:title>_</dc:title>
      </cc:Work>
    </rdf:RDF>
  </metadata>
  <defs
     id="defs91" />
  <sodipodi:namedview
     pagecolor="#ffffff"
     bordercolor="#666666"
     borderopacity="1"
     objecttolerance="10"
     gridtolerance="10"
     guidetolerance="10"
     inkscape:pageopacity="0"
     inkscape:pageshadow="2"
     inkscape:window-width="1920"
     inkscape:window-height="1027"
     id="namedview89"
     showgrid="false"
     fit-margin-top="0"
     fit-margin-left="0"
     fit-margin-right="0"
     fit-margin-bottom="0"
     inkscape:zoom="2.4607843"
     inkscape:cx="150.78922"
     inkscape:cy="99.760925"
     inkscape:window-x="1072"
     inkscape:window-y="348"
     inkscape:window-maximized="1"
     inkscape:current-layer="Layer_1" />
  <title
     id="title2">_</title>
  <path
     d="m 253.76081,21.28771 c 25.64,12.82 42.95,40.11 43.34,79.55 0.32,31.63 -1,66.55 -57.29,76.43 -109.51,19.28 -197.500002,29.05 -223.690002,-22.82 -26.19,-51.87 -20.0900001,-129 38.52,-145.3800002 42.79,-11.94 138.580002,-18.06 199.120002,12.2200002 z"
     fill="#e6e6e6"
     opacity="0.3"
     id="path4" />
  <rect
     x="-227.4808"
     y="-120.01772"
     width="82.660004"
     height="98.730003"
     transform="scale(-1)"
     fill="#e6e6e6"
     id="rect6" />
  <rect
     x="188.9308"
     y="26.137707"
     width="32.060001"
     height="41.75"
     opacity="0.05"
     id="rect8" />
  <rect
     x="151.3208"
     y="26.137707"
     width="32.060001"
     height="41.75"
     opacity="0.05"
     id="rect10" />
  <rect
     x="151.3208"
     y="73.427704"
     width="32.060001"
     height="41.75"
     opacity="0.05"
     id="rect12" />
  <rect
     x="188.9308"
     y="73.427704"
     width="32.060001"
     height="41.75"
     opacity="0.05"
     id="rect14" />
  <path
     d="m 193.78081,162.47771 19.78,-61.64 c 0,0 -58.92,0.68 -58.58,1.7 l -18,57.19 z"
     fill="#ffd200"
     id="path16" />
  <path
     d="m 154.98081,102.54771 c -0.34,-1.7 -30.64,-18.69 -46.64,-19.39 l -24.780002,68.71 54.000002,6.46 z"
     fill="#ffd200"
     id="path18" />
  <path
     d="m 154.98081,102.54771 c -0.34,-1.7 -30.64,-18.69 -46.64,-19.39 l -24.780002,68.71 54.000002,6.46 z"
     opacity="0.09"
     id="path20" />
  <path
     d="m 106.84081,98.86771 a 96.42,96.42 0 0 1 38.32,16.77 c 1,0.76 0,2.49 -1,1.73 a 95,95 0 0 0 -37.84,-16.58 c -1.28,-0.24 -0.76,-2.17 0.52,-1.92 z"
     opacity="0.09"
     id="path22" />
  <path
     d="m 103.56081,106.63771 a 96.36,96.36 0 0 1 38.32,16.77 c 1,0.76 0,2.49 -1,1.73 a 94.88,94.88 0 0 0 -37.82,-16.59 c -1.26,-0.23 -0.73,-2.16 0.5,-1.91 z"
     opacity="0.09"
     id="path24" />
  <path
     d="m 100.48081,115.34771 a 96.36,96.36 0 0 1 38.32,16.77 c 1,0.76 0,2.49 -1,1.73 a 95,95 0 0 0 -37.840002,-16.58 c -1.27,-0.24 -0.74,-2.17 0.520002,-1.92 z"
     opacity="0.09"
     id="path26" />
  <rect
     x="16.120806"
     y="162.47771"
     width="266.32001"
     height="33.360001"
     fill="#e6e6e6"
     id="rect28" />
  <rect
     x="32.570808"
     y="180.45772"
     width="180.99001"
     height="15.38"
     fill="#c1c1c1"
     id="rect30" />
  <polygon
     points="121.06,148.09 129.2,123.11 137.49,131.28 135.03,146.86 "
     fill="#f4a28c"
     id="polygon32"
     transform="translate(-51.439192,-52.45229)" />
  <path
     d="m 83.030808,61.92771 a 7.33,7.33 0 0 1 9.94,7.22 c -0.24,5.79 -1.69,13.91 -8.08,12.62 -9.8,-2 -7.65,-14.72 -7.65,-14.72 a 13.38,13.38 0 0 1 5.79,-5.12 z"
     fill="#f4a28c"
     id="path34" />
  <path
     d="m 35.930808,195.83771 h 52.28 l 5.72,-13.56 a 185.94,185.94 0 0 1 11.810002,-23.73 c 17.32,-28.83 5.17,-66.65 -27.910002,-69.7 a 41.92,41.92 0 0 0 -26.65,6.6 c -17.94,11.27 -26.89,32.61 -23.3,53.49 z"
     fill="#68e1fd"
     id="path36" />
  <path
     d="m 75.080808,109.68771 a 16.36,16.36 0 0 1 26.860002,-11 45.73,45.73 0 0 1 11.68,15.11 c 9.56,20 24.8,33.16 76.18,32 v 12.55 c 0,0 -74.7,15.83 -101.580002,-14.34 -11.46,-12.89 -14,-24.84 -13.14,-34.32 z"
     fill="#68e1fd"
     id="path38" />
  <path
     d="m 75.080808,109.68771 a 16.36,16.36 0 0 1 26.860002,-11 45.73,45.73 0 0 1 11.68,15.11 c 9.56,20 24.8,33.16 76.18,32 v 12.55 c 0,0 -74.7,15.83 -101.580002,-14.34 -11.46,-12.89 -14,-24.84 -13.14,-34.32 z"
     fill="#ffffff"
     opacity="0.44"
     id="path40" />
  <path
     d="m 189.80081,149.18771 c 0,0 10.3,-6.87 15.68,-2.09 5.38,4.78 -15.68,11.23 -15.68,11.23 z"
     fill="#f4a28c"
     id="path42" />
  <path
     d="m 68.030808,195.83771 c -24.4,-19.82 -20.2,-64 -20.2,-64 1.58,-26.07 30,-42.94 30,-42.94 l 2.61,-11.62 -5,0.49 -3.57,10.94 c -34.11,2.51 -43,37.54 -43,37.54 l 11.17,69.64 z"
     opacity="0.09"
     id="path44" />
  <path
     d="m 81.090808,73.84771 c 0.36,-0.49 0.73,-1 1.07,-1.47 2,-3 3.85,-6.14 7.35,-7.47 3.84,-1.45 2.93,-3.65 0.46,-6.25 -3.33,-3.5 -9.5,-4.6 -14,-3.57 a 12.54,12.54 0 0 0 -8.21,5.9 27.78,27.78 0 0 0 -2,5.27 38.42,38.42 0 0 1 -7.93,14.29 93.82,93.82 0 0 1 -9,8 c -3.06,2.61 -6,5.48 -7.86,9.05 -1.86,3.57 -2.51,7.94 -0.88,11.62 a 14.27,14.27 0 0 0 6.47,6.46 c 6.67,3.62 15,3.5 22.07,0.83 a 11.23,11.23 0 0 0 4.51,-2.71 12.22,12.22 0 0 0 2.42,-5.25 c 2.31,-8.62 2.89,-17.56 3.74,-26.41 0.19,-2 0.11,-4.37 0.7,-6.29 a 6.8,6.8 0 0 1 1.09,-2 z"
     fill="#24285b"
     id="path46" />
  <path
     d="m 86.090808,70.91771 c 0,0 -0.28,-3.5 -3.42,-2.12 -3.14,1.38 -0.9,5.85 1.25,5.73 2.15,-0.12 2.17,-3.61 2.17,-3.61 z"
     fill="#f4a28c"
     id="path48" />
  <path
     d="m 18.240808,195.83771 h 31.52 c 28.06,-13.29 10.8,-67.75 -14.6,-69.57 -18.9,-1.35 -28.7800001,16.65 -33.8800001,33.55 a 29.69,29.69 0 0 0 16.9600001,36.02 z"
     fill="#ffd200"
     id="path50" />
  <path
     d="m 18.140808,195.83771 h 6.17 l 4.53,-3.83 c -32.0000001,-24.69 3.25,-65.79 3.25,-65.79 -21.22,0.53 -30.5300001,32.56 -30.5300001,32.56 -6.12,22.55 9.0000001,33.22 16.5800001,37.06 z"
     opacity="0.09"
     id="path52" />
  <path
     d="m 34.090808,195.83771 a 135.66,135.66 0 0 1 4.23,-30.69 5.85,5.85 0 1 0 -11.29,-3.07 145.3,145.3 0 0 0 -4.79,33.76 z"
     fill="#ffd200"
     id="path54" />
  <path
     d="m 34.090808,195.83771 a 135.66,135.66 0 0 1 4.23,-30.69 5.85,5.85 0 1 0 -11.29,-3.07 145.3,145.3 0 0 0 -4.79,33.76 z"
     fill="#ffffff"
     opacity="0.44"
     id="path56" />
  <path
     d="m 158.21081,108.85771 h 42 a 1,1 0 0 1 0,2 h -42 a 1,1 0 0 1 0,-2 z"
     opacity="0.09"
     id="path58" />
  <path
     d="m 155.94081,117.38771 h 42 a 1,1 0 0 1 0,2 h -42 a 1,1 0 0 1 0,-2 z"
     opacity="0.09"
     id="path60" />
  <path
     d="m 153.67081,125.91771 h 42 a 1,1 0 0 1 0,2 h -42 a 1,1 0 0 1 0,-2 z"
     opacity="0.09"
     id="path62" />
  <path
     d="m 151.41081,134.44771 h 42 a 1,1 0 0 1 0,2 h -42 a 1,1 0 0 1 0,-2 z"
     opacity="0.09"
     id="path64" />
  <path
     d="m 261.76081,126.14771 c 0,0 9.67,-2.6 11.8,-11.6 0,0 -15,-3 -15.4,12.43 z"
     fill="#68e1fd"
     opacity="0.58"
     id="path66" />
  <path
     d="m 260.56081,125.18771 c 0,0 6.75,-10.67 0.81,-20.66 0,0 -11.39,7.24 -6.33,20.68 z"
     fill="#68e1fd"
     opacity="0.73"
     id="path68" />
  <path
     d="m 258.84081,125.19771 c 0,0 -3.57,-11.28 -14.36,-13.41 0,0 -2,7.32 7,13.44 z"
     fill="#68e1fd"
     id="path70" />
  <polygon
     points="302.99,190.85 301.17,177.46 317.29,177.39 315.33,190.8 "
     fill="#24285b"
     id="polygon72"
     transform="translate(-51.439192,-52.45229)" />
  <path
     d="m 109.92081,90.91771 a 96.44,96.44 0 0 1 38.32,16.78 c 1,0.75 0,2.49 -1,1.73 a 95.1,95.1 0 0 0 -37.84,-16.58 c -1.28,-0.25 -0.74,-2.17 0.52,-1.93 z"
     opacity="0.09"
     id="path74" />
  <rect
     x="-273.53082"
     y="-162.47772"
     width="60.939999"
     height="8.0299997"
     transform="scale(-1)"
     fill="#c1c1c1"
     id="rect76" />
  <rect
     x="-273.53082"
     y="-162.47772"
     width="30.469999"
     height="8.0299997"
     transform="scale(-1)"
     fill="#dbdbdb"
     id="rect78" />
  <rect
     x="-270.7308"
     y="-154.44771"
     width="60.939999"
     height="8.0299997"
     transform="scale(-1)"
     fill="#c1c1c1"
     id="rect80" />
  <rect
     x="-270.72079"
     y="-154.44771"
     width="30.469999"
     height="8.0299997"
     transform="scale(-1)"
     fill="#dbdbdb"
     id="rect82" />
  <rect
     x="-279.40082"
     y="-146.4277"
     width="60.939999"
     height="8.0299997"
     transform="scale(-1)"
     fill="#c1c1c1"
     id="rect84" />
  <rect
     x="-279.41083"
     y="-146.4277"
     width="30.469999"
     height="8.0299997"
     transform="scale(-1)"
     fill="#dbdbdb"
     id="rect86" />
</svg>
